# xmcd
#
# Track frame offsets: 
#        150
#        13413
#        25577
#        50866
#        74643
#        88867
#        105878
#        120851
#        137796
#        186820
#        204572
#        223556
#        253606
#        307525
#        320315
#
# Disc length: 4619 seconds
#
# Revision: 0
# Processed by: cddbd v1.5.2PL0 Copyright (c) Steve Scherf et al.
# Submitted via: ExactAudioCopy v0.99pb5
#
DISCID=cc12090f
DTITLE=Van Morrison - The Best of 2000
DYEAR=2000
DGENRE=Rhythmic Soul
TTITLE0=Here Comes The Night-01-29-Las Vegas-Nevada-Early
TTITLE1=Baby Please Don't Go-01-29-Las Vegas-Nevada-Early
TTITLE2=Have I Told You Lately-01-29-Las Vegas-Nevada-Late
TTITLE3=Hard Nose The Highway-01-28-Las Vegas-Nevada
TTITLE4=Give Me A Kiss-01-28-Las Vegas-Nevada
TTITLE5=Tupelo Honey-01-28-Las Vegas-Nevada
TTITLE6=Fever-01-28-Las Vegas-Nevada
TTITLE7=These Dreams Of You-01-22-Reno-Nevada
TTITLE8=Philosopher's Stone-01-21-Reno-Nevada
TTITLE9=Northern Muse-Solid Ground-01-25-LA-California
TTITLE10=Tupelo Honey-01-25-LA-California
TTITLE11=The Healing Game-01-25-LA-California
TTITLE12=Help Me-01-25-LA-California
TTITLE13=Star Of The County Down-06-02-Galway-Ireland
TTITLE14=Summertime In England-05-12-Copenhagen-Denmark
EXTD=
EXTT0=
EXTT1=
EXTT2=
EXTT3=
EXTT4=
EXTT5=
EXTT6=
EXTT7=
EXTT8=
EXTT9=
EXTT10=
EXTT11=
EXTT12=
EXTT13=
EXTT14=
PLAYORDER=
